<?xml version="1.0" encoding="UTF-8" standalone="no"?>
<!-- Generator: Adobe Illustrator 18.1.1, SVG Export Plug-In . SVG Version: 6.00 Build 0)  -->

<svg
   xmlns:dc="http://purl.org/dc/elements/1.1/"
   xmlns:cc="http://creativecommons.org/ns#"
   xmlns:rdf="http://www.w3.org/1999/02/22-rdf-syntax-ns#"
   xmlns:svg="http://www.w3.org/2000/svg"
   xmlns="http://www.w3.org/2000/svg"
   xmlns:sodipodi="http://sodipodi.sourceforge.net/DTD/sodipodi-0.dtd"
   xmlns:inkscape="http://www.inkscape.org/namespaces/inkscape"
   version="1.1"
   id="Layer_1"
   x="0px"
   y="0px"
   width="32px"
   height="32px"
   viewBox="0 0 32 32"
   enable-background="new 0 0 32 32"
   xml:space="preserve"
   inkscape:version="0.91 r13725"
   sodipodi:docname="social-1_round-slack.svg"><metadata
     id="metadata11"><rdf:RDF><cc:Work
         rdf:about=""><dc:format>image/svg+xml</dc:format><dc:type
           rdf:resource="http://purl.org/dc/dcmitype/StillImage" /></cc:Work></rdf:RDF></metadata><defs
     id="defs9" /><sodipodi:namedview
     pagecolor="#ffffff"
     bordercolor="#666666"
     borderopacity="1"
     objecttolerance="10"
     gridtolerance="10"
     guidetolerance="10"
     inkscape:pageopacity="0"
     inkscape:pageshadow="2"
     inkscape:window-width="665"
     inkscape:window-height="480"
     id="namedview7"
     showgrid="false"
     inkscape:zoom="7.375"
     inkscape:cx="16"
     inkscape:cy="16"
     inkscape:window-x="182"
     inkscape:window-y="0"
     inkscape:window-maximized="0"
     inkscape:current-layer="Layer_1" /><rect
     x="14.3"
     y="14.2"
     transform="matrix(-0.3176 -0.9482 0.9482 -0.3176 5.9097 36.253)"
     fill="#444444"
     width="3.4"
     height="3.5"
     id="rect3"
     style="fill:#ffffff" /><path
     fill="#444444"
     d="M16,0C7.2,0,0,7.2,0,16c0,8.8,7.2,16,16,16s16-7.2,16-16C32,7.2,24.8,0,16,0z M23.1,18.1l-1.6,0.5l0.6,1.7  c0.2,0.7-0.1,1.4-0.8,1.6c-0.1,0-0.3,0.1-0.4,0.1c-0.5,0-1-0.4-1.2-0.9L19,19.5l-3.3,1.1l0.6,1.7c0.2,0.7-0.1,1.4-0.8,1.6  C15.3,24,15.1,24,15,24c-0.5,0-1-0.4-1.2-0.9l-0.6-1.7L11.6,22c-0.1,0-0.3,0.1-0.4,0.1c-0.5,0-1-0.4-1.2-0.9  c-0.2-0.7,0.1-1.4,0.8-1.6l1.6-0.5l-1.1-3.2l-1.6,0.5c-0.1,0-0.3,0.1-0.4,0.1c-0.5,0-1-0.4-1.2-0.9c-0.2-0.7,0.1-1.4,0.8-1.6  l1.6-0.5L10,11.6c-0.2-0.7,0.1-1.4,0.8-1.6c0.7-0.2,1.4,0.1,1.6,0.8l0.6,1.7l3.3-1.1l-0.6-1.7c-0.2-0.7,0.1-1.4,0.8-1.6  c0.7-0.2,1.4,0.1,1.6,0.8l0.6,1.7l1.6-0.5c0.7-0.2,1.4,0.1,1.6,0.8c0.2,0.7-0.1,1.4-0.8,1.6L19.6,13l1.1,3.2l1.6-0.5  c0.7-0.2,1.4,0.1,1.6,0.8C24.1,17.2,23.8,17.9,23.1,18.1z"
     id="path5"
     style="fill:#ffffff" /></svg>