<?xml version="1.0" encoding="UTF-8" standalone="no"?>
<!-- Generator: Adobe Illustrator 18.1.1, SVG Export Plug-In . SVG Version: 6.00 Build 0)  -->

<svg
   xmlns:dc="http://purl.org/dc/elements/1.1/"
   xmlns:cc="http://creativecommons.org/ns#"
   xmlns:rdf="http://www.w3.org/1999/02/22-rdf-syntax-ns#"
   xmlns:svg="http://www.w3.org/2000/svg"
   xmlns="http://www.w3.org/2000/svg"
   xmlns:sodipodi="http://sodipodi.sourceforge.net/DTD/sodipodi-0.dtd"
   xmlns:inkscape="http://www.inkscape.org/namespaces/inkscape"
   version="1.1"
   id="Layer_1"
   x="0px"
   y="0px"
   width="32px"
   height="32px"
   viewBox="0 0 32 32"
   enable-background="new 0 0 32 32"
   xml:space="preserve"
   inkscape:version="0.91 r13725"
   sodipodi:docname="social-1_round-twitter.svg"><metadata
     id="metadata9"><rdf:RDF><cc:Work
         rdf:about=""><dc:format>image/svg+xml</dc:format><dc:type
           rdf:resource="http://purl.org/dc/dcmitype/StillImage" /></cc:Work></rdf:RDF></metadata><defs
     id="defs7" /><sodipodi:namedview
     pagecolor="#ffffff"
     bordercolor="#666666"
     borderopacity="1"
     objecttolerance="10"
     gridtolerance="10"
     guidetolerance="10"
     inkscape:pageopacity="0"
     inkscape:pageshadow="2"
     inkscape:window-width="640"
     inkscape:window-height="480"
     id="namedview5"
     showgrid="false"
     inkscape:zoom="7.375"
     inkscape:cx="16"
     inkscape:cy="16"
     inkscape:window-x="0"
     inkscape:window-y="0"
     inkscape:window-maximized="0"
     inkscape:current-layer="Layer_1" /><path
     fill="#444444"
     d="M16,0C7.2,0,0,7.2,0,16c0,8.8,7.2,16,16,16s16-7.2,16-16C32,7.2,24.8,0,16,0z M22.4,12.7c0,0.1,0,0.3,0,0.4  c0,4.3-3.3,9.3-9.3,9.3c-1.9,0-3.6-0.5-5-1.5c0.3,0,0.5,0,0.8,0c1.5,0,3-0.5,4.1-1.4c-1.4,0-2.6-1-3.1-2.3c0.2,0,0.4,0.1,0.6,0.1  c0.3,0,0.6,0,0.9-0.1c-1.5-0.3-2.6-1.6-2.6-3.2c0,0,0,0,0,0c0.4,0.2,0.9,0.4,1.5,0.4c-0.9-0.6-1.5-1.6-1.5-2.7  c0-0.6,0.2-1.2,0.4-1.7c1.6,2,4,3.3,6.8,3.4c-0.1-0.2-0.1-0.5-0.1-0.7c0-1.8,1.5-3.3,3.3-3.3c0.9,0,1.8,0.4,2.4,1  c0.7-0.1,1.5-0.4,2.1-0.8c-0.2,0.8-0.8,1.4-1.4,1.8c0.7-0.1,1.3-0.3,1.9-0.5C23.6,11.7,23,12.3,22.4,12.7z"
     id="path3"
     style="fill:#ffffff" /></svg>